<svg width="28" height="28" viewBox="0 0 28 28" fill="none" xmlns="http://www.w3.org/2000/svg">
<path d="M10.6667 18.1663H17.3333M13.1814 6.30297L7.52949 10.6989C7.15168 10.9928 6.96278 11.1397 6.82669 11.3237C6.70614 11.4867 6.61633 11.6703 6.56169 11.8655C6.5 12.0859 6.5 12.3252 6.5 12.8038V18.833C6.5 19.7664 6.5 20.2331 6.68166 20.5896C6.84144 20.9032 7.09641 21.1582 7.41002 21.318C7.76654 21.4996 8.23325 21.4996 9.16667 21.4996H18.8333C19.7668 21.4996 20.2335 21.4996 20.59 21.318C20.9036 21.1582 21.1586 20.9032 21.3183 20.5896C21.5 20.2331 21.5 19.7664 21.5 18.833V12.8038C21.5 12.3252 21.5 12.0859 21.4383 11.8655C21.3837 11.6703 21.2939 11.4867 21.1733 11.3237C21.0372 11.1397 20.8483 10.9928 20.4705 10.6989L14.8186 6.30297C14.5258 6.07526 14.3794 5.9614 14.2178 5.91763C14.0752 5.87902 13.9248 5.87902 13.7822 5.91763C13.6206 5.9614 13.4742 6.07526 13.1814 6.30297Z" stroke="#667085" stroke-width="1.66667" stroke-linecap="round" stroke-linejoin="round"/>
</svg>
